<svg xmlns="http://www.w3.org/2000/svg" viewBox="0 0 64 64">
  <rect width="64" height="64" rx="14" fill="#2563eb"/>
  <path d="M31.4 10.9c.3-1.2 2-1.2 2.3 0l2.5 9.6c.1.5.5.8 1 1l9.6 2.5c1.2.3 1.2 2 0 2.3l-9.6 2.5c-.5.1-.8.5-1 1l-2.5 9.6c-.3 1.2-2 1.2-2.3 0l-2.5-9.6c-.1-.5-.5-.8-1-1l-9.6-2.5c-1.2-.3-1.2-2 0-2.3l9.6-2.5c.5-.1.8-.5 1-1l2.5-9.6Z" fill="#fff"/>
  <path d="M45.3 39.4c.2-.8 1.3-.8 1.5 0l1.1 4.2c.1.3.3.5.6.6l4.2 1.1c.8.2.8 1.3 0 1.5l-4.2 1.1c-.3.1-.5.3-.6.6l-1.1 4.2c-.2.8-1.3.8-1.5 0l-1.1-4.2c-.1-.3-.3-.5-.6-.6l-4.2-1.1c-.8-.2-.8-1.3 0-1.5l4.2-1.1c.3-.1.5-.3.6-.6l1.1-4.2Z" fill="#bfdbfe"/>
</svg>
